<svg width="93" height="10" viewBox="0 0 93 10" fill="none" xmlns="http://www.w3.org/2000/svg">
<path fill-rule="evenodd" clip-rule="evenodd" d="M9.11634 6.93521C9.11634 6.02791 8.62489 5.23403 7.90661 4.80558C8.34766 4.35193 8.61229 3.73447 8.61229 3.054C8.61229 1.69305 7.50336 0.571533 6.12981 0.571533H6.0416H0.00552672V1.10079C0.00552672 1.12742 0.00727532 1.15356 0.0106575 1.17909H-0.000732422V9.40497H0.00552672V9.40507C6.86069 9.40507 6.63387 9.41767 6.63387 9.41767C8.00742 9.41767 9.11634 8.30876 9.11634 6.93521ZM1.23315 4.44014V1.68045H6.12981C6.88589 1.68045 7.50336 2.29792 7.50336 3.054C7.50336 3.82268 6.88589 4.44014 6.12981 4.44014H1.23315ZM4.56724 5.54906H1.23315V8.30876H6.63387C7.38995 8.30876 8.00742 7.69129 8.00742 6.93521C8.00742 6.17913 7.38995 5.56166 6.63387 5.56166V5.54906H4.56724ZM23.3548 9.40507L18.8561 0.571533H18.1757C17.8102 0.571533 17.4826 0.785756 17.3062 1.10079L13.0847 9.40507H14.3448L18.2135 1.81907L21.5276 8.30876H17.4448L16.8777 9.40507H23.3548ZM29.3267 3.88568C29.6418 3.88568 29.9064 4.15031 29.9064 4.46535V9.40507H29.3267C29.0117 9.40507 28.7597 9.15304 28.7597 8.83801V3.88568H29.3267ZM32.7417 0.571533C33.0567 0.571533 33.3088 0.836162 33.3088 1.15119V1.68045H25.9243C25.6093 1.68045 25.3447 1.42842 25.3447 1.10079V0.571533H32.7417ZM38.4771 4.9946C38.4771 3.16741 39.9641 1.68045 41.7913 1.68045H45.0424C45.3575 1.68045 45.6221 1.42842 45.6221 1.10079V0.571533H41.7913C39.3466 0.571533 37.3682 2.54994 37.3682 4.9946C37.3682 7.43926 39.3466 9.41767 41.7913 9.41767C41.7913 9.41767 41.7409 9.40507 45.6221 9.40507V8.88842C45.6221 8.56078 45.3575 8.30876 45.0424 8.30876H41.7913C39.9641 8.30876 38.4771 6.8218 38.4771 4.9946ZM54.0653 0.571533L58.5639 9.40507H52.0868L52.6539 8.30876H56.7367L53.4226 1.81907L49.5539 9.40507H48.2938L52.5153 1.10079C52.6917 0.785756 53.0193 0.571533 53.3848 0.571533H54.0653ZM64.2712 5.37264L62.0534 1.02518C61.9147 0.747952 61.6249 0.571533 61.3225 0.571533H60.5538L63.8302 6.98561L64.2712 6.11612C64.3846 5.8893 64.3846 5.59947 64.2712 5.37264ZM70.8239 0.571533H70.0679C69.7528 0.571533 69.4756 0.747952 69.3244 1.02518L65.0525 9.41767H66.3252L70.8239 0.571533ZM82.1004 8.30876C82.4155 8.30876 82.6801 8.56078 82.6801 8.88842V9.40507H74.3002V8.30876H74.3007V5.54906H74.3002V4.44014H74.3007V1.68045H74.3002V0.571533H82.5541V1.10079C82.5541 1.42842 82.2894 1.68045 81.9744 1.68045H75.5346V4.44014H81.7728V4.9694C81.7728 5.28443 81.5208 5.54906 81.1931 5.54906H75.5346V8.30876H82.1004Z" fill="white"/>
<path d="M89.906 0.950814C89.906 0.849362 89.9403 0.771216 90.0088 0.716377C90.0774 0.658796 90.172 0.630005 90.2926 0.630005L91.288 3.01962L91.2098 3.21293L91.2386 3.22527L92.2915 0.630005C92.4122 0.630005 92.5068 0.658796 92.5753 0.716377C92.6466 0.773958 92.6823 0.853475 92.6823 0.954927V3.5831C92.4272 3.5831 92.2997 3.47753 92.2997 3.2664V1.53485L92.4067 1.25106L92.3738 1.24283L91.4566 3.47205C91.4429 3.50495 91.4209 3.531 91.3908 3.55019C91.3606 3.57213 91.3291 3.5831 91.2962 3.5831C91.2605 3.5831 91.2276 3.5735 91.1975 3.55431C91.1673 3.53511 91.1454 3.50769 91.1317 3.47205L90.2145 1.23872L90.1816 1.25106L90.2885 1.53074V3.2664C90.2885 3.37059 90.2556 3.45011 90.1898 3.50495C90.1267 3.55705 90.0321 3.5831 89.906 3.5831V0.950814Z" fill="white"/>
<path d="M87.862 1.00837H86.8584C86.8584 0.780783 86.9653 0.666992 87.1792 0.666992H89.248C89.248 0.894575 89.1411 1.00837 88.9272 1.00837H88.2486V3.26226C88.2486 3.36645 88.2157 3.44597 88.1499 3.50081C88.0841 3.55565 87.9881 3.58307 87.862 3.58307V1.00837Z" fill="white"/>
</svg>
