<svg width="24" height="24" viewBox="0 0 24 24" fill="none" xmlns="http://www.w3.org/2000/svg">
<g clip-path="url(#clip0_1706_1487)">
<path d="M4.41381 -0.00012207C9.33168 -0.00012207 14.2448 -0.00012207 19.1627 -0.00012207C19.2099 0.174338 19.29 0.353512 19.29 0.527972C19.3042 1.42856 19.2947 2.32915 19.2947 3.22974C19.2947 3.3099 19.2947 3.39477 19.2947 3.48436C19.9219 3.48436 20.5065 3.48436 21.0959 3.48436C21.459 3.48436 21.591 3.6211 21.5957 3.97945C21.6004 4.64428 21.5957 5.30911 21.5957 5.97394C21.5957 6.26157 21.5957 6.54919 21.5957 6.83681C22.6566 7.03485 23.147 7.76569 23.1423 8.86903C23.1234 13.2777 23.1329 17.6816 23.1329 22.0903C23.1329 22.2977 23.1234 22.5146 23.0716 22.7174C22.8594 23.5331 22.2228 23.9999 21.3364 23.9999C14.8295 23.9999 8.32736 23.9999 1.82049 23.9999C0.688855 23.9999 0.00044636 23.3115 0.00044636 22.1751C0.00044636 18.6199 0.00044636 15.0694 0.00044636 11.5142C0.00044636 11.3633 -0.00426877 11.2172 0.00516149 11.0663C0.0381674 10.3967 0.504965 9.76962 1.15094 9.58573C1.41498 9.51029 1.69789 9.49143 1.98551 9.44899C1.98551 9.35941 1.98551 9.2651 1.98551 9.17552C1.98551 7.48279 1.98551 5.79477 1.98551 4.10204C1.98551 3.58338 2.07982 3.48436 2.6032 3.48436C3.15487 3.48436 3.71125 3.48436 4.2865 3.48436C4.2865 3.37591 4.2865 3.29104 4.2865 3.20616C4.2865 2.31501 4.27707 1.41913 4.29121 0.527972C4.29121 0.353512 4.37137 0.174338 4.41381 -0.00012207ZM2.72579 9.49143C2.80595 9.49143 2.86253 9.49143 2.9144 9.49143C2.95212 9.49143 2.99455 9.49143 3.03227 9.49143C3.27275 9.50086 3.41891 9.63288 3.42363 9.84035C3.42834 10.0478 3.29161 10.1987 3.05113 10.2034C2.6362 10.2128 2.22127 10.1893 1.80634 10.2176C1.58944 10.2317 1.34897 10.2741 1.16037 10.3779C0.797303 10.5712 0.707715 10.9295 0.707715 11.3209C0.707715 13.2211 0.707715 15.126 0.707715 17.0262C0.707715 18.7472 0.707715 20.4682 0.707715 22.194C0.707715 22.7268 0.929326 23.0946 1.35369 23.2266C1.52343 23.2785 1.70732 23.2926 1.8865 23.2926C5.37098 23.2973 8.85074 23.2973 12.3352 23.2973C14.3863 23.2973 16.4374 23.2973 18.4885 23.2973C19.1863 23.2973 19.5824 22.9107 19.5824 22.2364C19.5824 17.7052 19.5824 13.1739 19.5824 8.64271C19.5824 7.9873 19.1863 7.5818 18.5309 7.5818C16.5977 7.57709 14.6645 7.57709 12.7313 7.5818C12.1089 7.5818 11.7364 7.95901 11.6798 8.58141C11.661 8.81717 11.6091 9.06707 11.5054 9.27925C11.1753 9.95351 10.6001 10.227 9.86449 10.227C8.13404 10.2223 6.40359 10.227 4.67314 10.227C4.58827 10.227 4.47982 10.2459 4.41852 10.2034C4.31007 10.1233 4.16862 10.0101 4.15447 9.89693C4.14033 9.7932 4.25349 9.65174 4.34308 9.55744C4.39023 9.51029 4.50339 9.51029 4.58827 9.51029C5.14465 9.50558 5.70104 9.51029 6.25742 9.51029C7.46449 9.51029 8.66685 9.51029 9.87392 9.51029C10.5388 9.51029 10.883 9.20852 10.9773 8.5484C10.9961 8.42581 10.9914 8.2985 11.0244 8.17591C11.2366 7.36019 11.8543 6.87925 12.7219 6.87453C13.8111 6.8651 14.8955 6.87453 15.9847 6.87453C16.0696 6.87453 16.1545 6.87453 16.2488 6.87453C16.2488 5.98809 16.2488 5.12522 16.2488 4.26235C11.7317 4.26235 7.22874 4.26235 2.72579 4.26235C2.72579 5.99281 2.72579 7.72797 2.72579 9.49143ZM5.02677 3.48436C5.14937 3.48436 5.24367 3.48436 5.33797 3.48436C9.03935 3.48436 12.7407 3.48436 16.4421 3.48436C16.89 3.48436 17.0032 3.59752 17.0032 4.03603C17.0032 4.88947 17.0032 5.7429 17.0032 6.59634C17.0032 6.6765 17.0126 6.76137 17.0126 6.83681C17.5454 6.83681 18.05 6.83681 18.5498 6.83681C18.5498 4.7763 18.5498 2.72994 18.5498 0.683571C14.0327 0.683571 9.53915 0.683571 5.03149 0.683571C5.02677 1.61717 5.02677 2.53662 5.02677 3.48436ZM20.8649 21.7413C20.8649 21.6187 20.8649 21.5197 20.8649 21.416C20.8649 18.535 20.8649 15.6541 20.8649 12.7732C20.8649 12.4525 21.0063 12.2734 21.2374 12.2781C21.4637 12.2828 21.5957 12.4572 21.5957 12.7637C21.5957 15.8333 21.5957 18.9028 21.5957 21.9677C21.5957 22.3354 21.4731 22.458 21.1006 22.458C20.8366 22.4627 20.5725 22.458 20.3368 22.458C20.2331 22.7457 20.1435 23.0003 20.0445 23.2785C20.4641 23.2785 20.8743 23.269 21.2845 23.2832C22.0484 23.3068 22.4114 22.7787 22.4114 22.1515C22.3973 17.6675 22.402 13.1787 22.402 8.69457C22.402 8.6097 22.4067 8.52011 22.3973 8.43524C22.3643 8.00145 22.0107 7.63367 21.591 7.61009C21.591 7.69497 21.591 7.77984 21.591 7.86471C21.591 8.91147 21.591 9.96294 21.591 11.0097C21.591 11.1087 21.5816 11.2125 21.558 11.3115C21.5156 11.4765 21.393 11.5519 21.228 11.5519C21.0582 11.5519 20.9403 11.4718 20.8979 11.3115C20.8696 11.2077 20.8649 11.0946 20.8649 10.9861C20.8649 8.8266 20.8649 6.66707 20.8649 4.50283C20.8649 4.41324 20.8649 4.31893 20.8649 4.22463C20.3274 4.22463 19.8228 4.22463 19.2995 4.22463C19.2995 5.12051 19.2995 6.00695 19.3042 6.88868C19.3042 6.93112 19.3372 6.99713 19.3749 7.01599C20.1246 7.41206 20.3132 8.06746 20.3085 8.86432C20.2944 13.0514 20.3038 17.2384 20.3038 21.4301C20.3038 21.5292 20.3038 21.6282 20.3038 21.7319C20.5018 21.7413 20.6668 21.7413 20.8649 21.7413Z" fill="white" fill-opacity="0.6"/>
<path d="M14.5376 11.4201C15.7211 11.4201 16.8999 11.4201 18.0834 11.4201C18.47 11.4201 18.5926 11.5427 18.5973 11.9199C18.5973 12.712 18.5973 13.4994 18.5973 14.2916C18.5973 14.6594 18.4653 14.7914 18.1022 14.7914C15.7164 14.7914 13.3258 14.7914 10.9399 14.7914C10.5769 14.7914 10.4401 14.6594 10.4354 14.301C10.4307 13.5042 10.4307 12.7026 10.4354 11.9057C10.4354 11.5568 10.5722 11.4201 10.9211 11.4201C12.1282 11.4153 13.3305 11.4201 14.5376 11.4201ZM11.1804 14.037C13.4201 14.037 15.6362 14.037 17.8523 14.037C17.8523 13.4004 17.8523 12.7875 17.8523 12.1651C15.6221 12.1651 13.406 12.1651 11.1804 12.1651C11.1804 12.7969 11.1804 13.4098 11.1804 14.037Z" fill="white" fill-opacity="0.6"/>
<path d="M8.8504 6.06363C7.49716 6.06363 6.14391 6.06363 4.79067 6.06363C4.7058 6.06363 4.61621 6.06835 4.53134 6.0542C4.34274 6.02591 4.239 5.90332 4.22957 5.71943C4.22014 5.53082 4.32859 5.40823 4.50777 5.36579C4.58792 5.34693 4.67751 5.35636 4.76238 5.35636C7.49716 5.35636 10.2366 5.35636 12.9714 5.35636C13.3298 5.35636 13.5042 5.46481 13.5089 5.70057C13.5184 5.94575 13.3345 6.06835 12.9667 6.06835C11.604 6.06363 10.2272 6.06363 8.8504 6.06363Z" fill="white" fill-opacity="0.6"/>
<path d="M7.02141 7.85005C6.27642 7.85005 5.53614 7.85005 4.79115 7.85005C4.70628 7.85005 4.61669 7.85476 4.53182 7.84062C4.34321 7.81233 4.23948 7.68973 4.23477 7.50584C4.23005 7.30781 4.3385 7.18522 4.53653 7.1475C4.57426 7.13807 4.61669 7.14278 4.65441 7.14278C6.24341 7.14278 7.83241 7.14278 9.42141 7.14278C9.46856 7.14278 9.51571 7.13806 9.56286 7.15221C9.74675 7.19465 9.8552 7.32196 9.85048 7.50113C9.85048 7.68031 9.75147 7.81704 9.55815 7.84533C9.42612 7.86419 9.2941 7.85948 9.16208 7.85948C8.44538 7.85005 7.73339 7.85005 7.02141 7.85005Z" fill="white" fill-opacity="0.6"/>
</g>
<defs>
<clipPath id="clip0_1706_1487">
<rect width="23.1466" height="24" fill="white"/>
</clipPath>
</defs>
</svg>
