<svg width="25" height="24" viewBox="0 0 25 24" fill="none" xmlns="http://www.w3.org/2000/svg">
<g clip-path="url(#clip0_1706_1508)">
<path d="M16.3924 0C16.5802 0 16.7681 0 16.9559 0C16.981 0.0125228 17.006 0.0375685 17.0373 0.0438299C17.7198 0.262979 18.083 0.757631 18.083 1.47143C18.083 1.60292 18.083 1.72815 18.083 1.87216C19.2038 1.87216 20.287 1.87216 21.3765 1.87216C22.3407 1.87216 22.9231 2.45447 22.9231 3.41873C22.9231 7.75163 22.9231 12.0845 22.9293 16.4174C22.9293 16.5489 22.9919 16.7055 23.0733 16.8119C23.449 17.3003 23.737 17.8325 23.8998 18.4273C23.9624 18.6402 24 18.8656 24.0501 19.0785C24.0501 19.4229 24.0501 19.7673 24.0501 20.1117C24.0376 20.1555 24.0125 20.1931 24.0063 20.2369C23.7683 21.9463 22.4722 23.4052 20.8067 23.8497C19.0785 24.3068 17.2377 23.7057 16.167 22.3094C16.0605 22.1717 15.9541 22.1153 15.7788 22.1216C14.4263 22.1278 13.0738 22.1278 11.7151 22.1216C11.6212 22.1216 11.5273 22.1216 11.4396 22.0965C11.2205 22.0277 11.1078 21.8148 11.1391 21.5768C11.1704 21.3452 11.3582 21.1886 11.6212 21.1886C12.5416 21.1886 13.4683 21.1886 14.3887 21.1886C14.7582 21.1886 15.1213 21.1886 15.4845 21.1886C15.3843 20.7441 15.2904 20.3183 15.1965 19.8737C15.1088 19.8737 15.0149 19.8737 14.921 19.8737C10.9011 19.8737 6.87505 19.8737 2.85522 19.8737C2.42944 19.8737 2.27291 19.7172 2.27291 19.2977C2.27291 15.6786 2.27291 12.0657 2.27291 8.44665C2.27291 8.02713 2.42944 7.8706 2.85522 7.8706C8.59694 7.8706 14.3449 7.8706 20.0866 7.8706C20.5249 7.8706 20.6752 8.02713 20.6752 8.45917C20.6752 10.6444 20.6752 12.8359 20.6752 15.0211C20.6752 15.1151 20.6752 15.2027 20.6752 15.2528C21.1323 15.4469 21.5581 15.6222 21.9776 15.7975C21.9776 12.7232 21.9776 9.64884 21.9776 6.5557C21.8586 6.5557 21.7584 6.5557 21.6582 6.5557C15.9165 6.5557 10.1686 6.5557 4.42683 6.5557C4.3517 6.5557 4.2703 6.56196 4.19516 6.5557C3.96349 6.53692 3.78817 6.34907 3.77565 6.12366C3.76312 5.89199 3.90714 5.6791 4.12629 5.63527C4.21395 5.61649 4.31413 5.62275 4.40805 5.62275C10.1686 5.62275 15.9291 5.62275 21.6896 5.62275C21.7897 5.62275 21.8837 5.62275 21.9776 5.62275C21.9901 5.57266 21.9964 5.56014 21.9964 5.54761C21.9964 4.84633 21.9964 4.13879 21.9964 3.43752C21.9964 2.99296 21.8148 2.81138 21.3702 2.81138C20.3559 2.81138 19.3353 2.81138 18.3209 2.81138C18.252 2.81138 18.1832 2.81764 18.1018 2.8239C18.1018 2.98669 18.1018 3.13071 18.1018 3.28098C18.0955 4.07618 17.4756 4.6898 16.6867 4.6898C15.9103 4.6898 15.2904 4.06992 15.2841 3.28724C15.2841 3.13697 15.2841 2.98043 15.2841 2.83016C12.7295 2.83016 10.2061 2.83016 7.67651 2.83016C7.67651 2.98669 7.67651 3.12445 7.67651 3.26846C7.67025 4.06992 7.06289 4.6898 6.27395 4.6898C5.48501 4.6898 4.86513 4.07618 4.85887 3.28098C4.85887 3.13071 4.85887 2.97417 4.85887 2.81764C3.75686 2.81764 2.69242 2.81764 1.62798 2.81764C1.12081 2.81764 0.958011 2.98669 0.958011 3.49387C0.958011 9.16671 0.958011 14.8333 0.958011 20.5061C0.958011 21.0321 1.12081 21.1886 1.64677 21.1886C3.69425 21.1886 5.74799 21.1886 7.79548 21.1886C8.11481 21.1886 8.3277 21.3765 8.3277 21.6582C8.3277 21.9337 8.11481 22.1278 7.79548 22.1278C5.67286 22.1278 3.5565 22.1278 1.43388 22.1278C0.839044 22.1278 0.33187 21.7647 0.11272 21.2074C0.0876744 21.1385 0.0501059 21.0697 0.0187988 21.0008C0.0187988 15.0023 0.0187988 9.00391 0.0187988 3.00548C0.0313217 2.98669 0.0563673 2.97417 0.0626287 2.95539C0.300562 2.20402 0.763907 1.87842 1.55285 1.87842C2.56093 1.87842 3.56902 1.87842 4.57711 1.87842C4.65851 1.87842 4.73991 1.87842 4.84009 1.87842C4.84009 1.69684 4.84009 1.55283 4.84009 1.40256C4.84635 0.864075 5.09054 0.463345 5.54137 0.187842C5.67286 0.106444 5.82313 0.0626141 5.96088 0C6.14872 0 6.33657 0 6.52441 0C6.54945 0.0125228 6.5745 0.0375685 6.60581 0.0438299C7.2883 0.262979 7.65146 0.757631 7.65146 1.47143C7.65146 1.60292 7.65146 1.72815 7.65146 1.85964C10.2061 1.85964 12.7232 1.85964 15.2591 1.85964C15.2591 1.69684 15.2591 1.55283 15.2591 1.40256C15.2653 0.864075 15.5033 0.463345 15.9604 0.187842C16.0981 0.112705 16.2484 0.0626141 16.3924 0ZM23.1046 19.5982C23.1109 17.6948 21.5393 16.1231 19.6295 16.1231C17.7323 16.1231 16.1607 17.676 16.1545 19.5732C16.1419 21.4767 17.7073 23.0545 19.617 23.0608C21.5205 23.067 23.0984 21.5017 23.1046 19.5982ZM5.72295 11.5711C5.72295 10.6381 5.72295 9.7365 5.72295 8.82859C4.87139 8.82859 4.04489 8.82859 3.21212 8.82859C3.21212 9.74902 3.21212 10.6569 3.21212 11.5711C4.05115 11.5711 4.87766 11.5711 5.72295 11.5711ZM6.70599 11.5648C7.55128 11.5648 8.38405 11.5648 9.22308 11.5648C9.22308 10.6444 9.22308 9.7365 9.22308 8.82859C8.37153 8.82859 7.53876 8.82859 6.70599 8.82859C6.70599 9.74902 6.70599 10.6507 6.70599 11.5648ZM10.1999 8.81607C10.1999 9.74276 10.1999 10.6507 10.1999 11.5586C11.0451 11.5586 11.8779 11.5586 12.7107 11.5586C12.7107 10.6381 12.7107 9.73024 12.7107 8.81607C11.8717 8.81607 11.0451 8.81607 10.1999 8.81607ZM16.2108 8.82859C15.3593 8.82859 14.5265 8.82859 13.6875 8.82859C13.6875 9.74902 13.6875 10.6507 13.6875 11.5648C14.5328 11.5648 15.3655 11.5648 16.2108 11.5648C16.2108 10.6507 16.2108 9.74902 16.2108 8.82859ZM19.7172 8.82233C18.8657 8.82233 18.0329 8.82233 17.1939 8.82233C17.1939 9.74276 17.1939 10.6507 17.1939 11.5586C18.0392 11.5586 18.8719 11.5586 19.7172 11.5586C19.7172 10.6444 19.7172 9.74276 19.7172 8.82233ZM5.72295 18.9283C5.72295 17.9953 5.72295 17.0937 5.72295 16.1858C4.87139 16.1858 4.04489 16.1858 3.21212 16.1858C3.21212 17.1062 3.21212 18.0141 3.21212 18.9283C4.05115 18.9283 4.87766 18.9283 5.72295 18.9283ZM9.22934 16.1795C8.37152 16.1795 7.54502 16.1795 6.71225 16.1795C6.71225 17.0999 6.71225 18.0078 6.71225 18.9157C7.55754 18.9157 8.39031 18.9157 9.22934 18.9157C9.22934 18.0016 9.22934 17.0999 9.22934 16.1795ZM12.7107 18.9283C12.7107 17.9953 12.7107 17.0874 12.7107 16.1858C11.8591 16.1858 11.0264 16.1858 10.2061 16.1858C10.2061 17.1124 10.2061 18.0203 10.2061 18.9283C11.0514 18.9283 11.8779 18.9283 12.7107 18.9283ZM5.72295 15.2278C5.72295 14.3136 5.72295 13.4245 5.72295 12.5291C4.87139 12.5291 4.04489 12.5291 3.21212 12.5291C3.21212 13.437 3.21212 14.3261 3.21212 15.2278C4.05115 15.2278 4.87766 15.2278 5.72295 15.2278ZM9.22308 15.2215C9.22308 14.3136 9.22308 13.4245 9.22308 12.5291C8.37153 12.5291 7.53876 12.5291 6.70599 12.5291C6.70599 13.4307 6.70599 14.3199 6.70599 15.2215C7.55128 15.2215 8.38405 15.2215 9.22308 15.2215ZM10.1936 15.2152C11.0514 15.2152 11.8779 15.2152 12.7107 15.2152C12.7107 14.3073 12.7107 13.4182 12.7107 12.5228C11.8654 12.5228 11.0326 12.5228 10.1936 12.5228C10.1936 13.4307 10.1936 14.3136 10.1936 15.2152ZM16.2046 15.2215C16.2046 14.3136 16.2046 13.4182 16.2046 12.5291C15.353 12.5291 14.5202 12.5291 13.6937 12.5291C13.6937 13.437 13.6937 14.3199 13.6937 15.2215C14.5328 15.2215 15.3593 15.2215 16.2046 15.2215ZM17.1939 12.5228C17.1939 13.437 17.1939 14.3324 17.1939 15.1965C18.0454 15.1965 18.8719 15.1965 19.7047 15.1965C19.7047 14.2823 19.7047 13.4057 19.7047 12.5228C18.8657 12.5228 18.0392 12.5228 17.1939 12.5228ZM13.6875 18.922C14.2259 18.922 14.7394 18.922 15.2591 18.922C15.378 18.227 15.616 17.5821 16.0418 17.031C16.2609 16.7555 16.2171 16.48 16.2046 16.1858C15.353 16.1858 14.5202 16.1858 13.6875 16.1858C13.6875 17.1062 13.6875 18.0078 13.6875 18.922ZM6.71851 2.34803C6.71851 2.05374 6.72477 1.7532 6.71851 1.45891C6.71225 1.15836 6.51815 0.945474 6.26143 0.939212C5.99845 0.932951 5.78556 1.1521 5.7793 1.45891C5.77304 2.04122 5.77304 2.62979 5.7793 3.21211C5.7793 3.52518 5.97967 3.74433 6.24891 3.74433C6.51815 3.74433 6.71225 3.52518 6.71851 3.21211C6.71851 2.92408 6.71851 2.63606 6.71851 2.34803ZM16.1983 2.32925C16.1983 2.61727 16.1983 2.9053 16.1983 3.19332C16.2046 3.52518 16.3987 3.75059 16.6742 3.74433C16.9434 3.73806 17.1375 3.51891 17.1375 3.20584C17.1438 2.62979 17.1438 2.05374 17.1375 1.47769C17.1375 1.16462 16.9371 0.945474 16.6742 0.939212C16.3987 0.932951 16.2046 1.16462 16.1983 1.49022C16.1983 1.77198 16.1983 2.05374 16.1983 2.32925Z" fill="white" fill-opacity="0.6"/>
<path d="M9.24819 21.6457C9.24819 21.3765 9.45482 21.1761 9.72406 21.1824C9.97451 21.1887 10.1811 21.3953 10.1874 21.6457C10.1874 21.9025 9.97451 22.1153 9.71153 22.1153C9.44229 22.1216 9.24193 21.915 9.24819 21.6457Z" fill="white" fill-opacity="0.6"/>
<path d="M2.35429 5.62268C2.61726 5.62268 2.82389 5.83557 2.81763 6.09855C2.81137 6.36153 2.59848 6.56189 2.32924 6.55563C2.07252 6.54937 1.87842 6.34274 1.87842 6.08602C1.87842 5.82931 2.08504 5.62268 2.35429 5.62268Z" fill="white" fill-opacity="0.6"/>
<path d="M19.5293 19.9176C20.0365 19.4104 20.5061 18.9345 20.9757 18.4649C21.1385 18.3021 21.3263 18.2708 21.533 18.3648C21.7333 18.4587 21.821 18.634 21.7834 18.8469C21.7646 18.9533 21.702 19.0723 21.6206 19.1474C21.0571 19.7235 20.4873 20.2933 19.9113 20.8568C19.6608 21.101 19.4166 21.101 19.1724 20.8631C18.8656 20.5625 18.5588 20.262 18.2582 19.9552C18.0328 19.7235 18.0266 19.448 18.2332 19.2476C18.4336 19.0535 18.7091 19.0723 18.9407 19.2977C19.1286 19.4981 19.3164 19.6984 19.5293 19.9176Z" fill="white" fill-opacity="0.6"/>
</g>
<defs>
<clipPath id="clip0_1706_1508">
<rect width="24.0438" height="24" fill="white"/>
</clipPath>
</defs>
</svg>
