<svg width="24" height="24" viewBox="0 0 24 24" fill="none" xmlns="http://www.w3.org/2000/svg">
<g clip-path="url(#clip0_1706_1515)">
<path d="M0 11.1578C0.0626141 10.7321 0.112705 10.3063 0.187842 9.88677C0.644926 7.30706 1.83459 5.10931 3.72554 3.30602C5.49126 1.61544 7.5951 0.544735 10.012 0.162789C13.4182 -0.369431 16.5301 0.3882 19.2977 2.47325C19.5607 2.66735 19.617 2.9366 19.448 3.16201C19.2789 3.39368 18.9971 3.42499 18.7279 3.22462C17.4255 2.23532 15.9791 1.52778 14.3762 1.20218C10.8072 0.482121 7.60136 1.2648 4.82129 3.61283C2.78007 5.32846 1.51526 7.53873 1.10827 10.1685C0.500913 14.0694 1.65301 17.413 4.51448 20.143C4.55205 20.1805 4.59588 20.2056 4.64597 20.2431C5.41612 16.6616 8.7472 14.1383 12.4226 14.3512C15.5721 14.5327 18.5087 16.7117 19.3415 20.2619C19.4229 20.1931 19.4918 20.1367 19.5544 20.0741C21.3702 18.3647 22.5035 16.2797 22.9043 13.8189C23.3238 11.2455 22.8855 8.80354 21.6019 6.52439C21.5643 6.45551 21.5205 6.3929 21.4829 6.32402C21.3201 6.036 21.3765 5.75423 21.6269 5.61648C21.8774 5.47873 22.1341 5.55387 22.2969 5.84189C22.5411 6.29271 22.7978 6.74354 23.0044 7.21314C25.8722 13.8252 22.3282 21.4516 15.4281 23.4991C14.658 23.7308 13.844 23.8059 13.0488 23.9562C12.9799 23.9687 12.911 23.9875 12.8484 24C12.2849 24 11.7214 24 11.1641 24C10.8886 23.9624 10.6131 23.9311 10.3313 23.8935C8.35273 23.6055 6.54318 22.8917 4.93399 21.6958C2.36681 19.7923 0.776415 17.2752 0.187842 14.1383C0.112705 13.7125 0.0626141 13.2742 0 12.8484C0 12.2849 0 11.7214 0 11.1578ZM11.9969 23.0733C12.2473 23.0608 12.4978 23.042 12.742 23.0295C14.7644 22.9042 16.6053 22.2468 18.2833 21.1135C18.4524 21.0008 18.4962 20.8818 18.4586 20.6877C17.7949 17.1437 14.5578 14.8395 11.0013 15.3718C8.22124 15.785 6.01722 17.9389 5.53509 20.7065C5.50378 20.8755 5.53509 20.9883 5.69163 21.0947C7.58883 22.3971 9.69893 23.042 11.9969 23.0733Z" fill="white" fill-opacity="0.6"/>
<path d="M7.78296 9.19175C7.78296 6.84998 9.66764 4.97156 12.0094 4.97156C14.3387 4.97156 16.2171 6.85624 16.2171 9.18549C16.2171 11.5273 14.3324 13.4057 11.9906 13.4057C9.66138 13.4057 7.78296 11.521 7.78296 9.19175ZM8.71591 9.17297C8.70965 10.97 10.1811 12.4602 11.9781 12.4727C13.7751 12.4853 15.2653 11.0013 15.2779 9.20427C15.2904 7.40725 13.8127 5.91703 12.0157 5.90451C10.2186 5.89825 8.72843 7.37594 8.71591 9.17297Z" fill="white" fill-opacity="0.6"/>
<path d="M20.6188 3.85083C20.888 3.85083 21.0946 4.0512 21.0946 4.32044C21.0946 4.58342 20.888 4.79004 20.625 4.79004C20.3683 4.79004 20.168 4.58968 20.1617 4.33296C20.1492 4.06372 20.3495 3.85083 20.6188 3.85083Z" fill="white" fill-opacity="0.6"/>
</g>
<defs>
<clipPath id="clip0_1706_1515">
<rect width="24" height="24" fill="white"/>
</clipPath>
</defs>
</svg>
