<svg width="29" height="24" viewBox="0 0 29 24" fill="none" xmlns="http://www.w3.org/2000/svg">
<g clip-path="url(#clip0_1706_1521)">
<path d="M26.7646 9.93221C25.9739 9.93221 25.2116 9.93221 24.4266 9.93221C24.3015 10.5238 24.0398 11.0301 23.6132 11.4567C22.2251 12.8334 19.7279 12.1963 19.2045 10.3077C19.1192 10.0005 18.9997 9.92083 18.6926 9.92083C17.1225 9.9379 15.5582 9.92652 13.9881 9.92652C13.8857 9.92652 13.7833 9.92652 13.7208 9.92652C13.5387 10.3077 13.4136 10.6888 13.1974 11.0073C12.5603 11.9346 11.6501 12.3328 10.5465 12.1507C9.4259 11.963 8.69208 11.2747 8.3849 10.1711C8.3337 9.97772 8.25975 9.91515 8.06065 9.92083C7.59988 9.9379 7.13911 9.92652 6.65558 9.92652C6.64989 9.82413 6.63851 9.74449 6.63851 9.65916C6.63851 8.52714 6.63283 7.38943 6.63851 6.25741C6.63851 5.3188 7.01965 4.60204 7.87862 4.16971C8.31095 3.95354 8.77172 3.94217 9.23818 3.9763C9.52261 3.99905 9.61932 3.89097 9.68758 3.6293C9.99476 2.49159 10.3247 1.36525 10.6489 0.233231C10.6717 0.159279 10.6945 0.0910168 10.7229 0.00568855C10.831 0.00568855 10.9334 0.00568855 11.0358 0.00568855C13.8687 0.00568855 16.7016 0.00568855 19.5345 0C19.7506 0 19.8587 0.051197 19.9497 0.267362C20.4219 1.40507 20.9225 2.53709 21.3946 3.6748C21.4856 3.89666 21.588 3.98767 21.8383 3.98199C22.7428 3.96492 23.653 3.97061 24.5575 3.9763C25.826 3.98199 26.7475 4.86371 26.7703 6.13226C26.7931 7.34961 26.776 8.56696 26.776 9.79C26.7817 9.82413 26.776 9.85826 26.7646 9.93221ZM13.6639 9.07893C13.7663 9.07893 13.8744 9.07893 13.9767 9.07893C15.5525 9.07893 17.1282 9.06755 18.7039 9.08462C19.0054 9.09031 19.1135 8.99929 19.1931 8.71486C19.7222 6.8092 22.2195 6.17208 23.6188 7.57146C24.0398 7.99242 24.2958 8.49301 24.4152 9.06186C24.9158 9.06186 25.405 9.06186 25.9056 9.06186C25.9056 8.04361 25.9398 7.04812 25.8943 6.04693C25.8601 5.27898 25.3254 4.82389 24.5404 4.82389C19.3183 4.8182 14.1019 4.8182 8.8798 4.82389C8.02652 4.82389 7.50886 5.35293 7.50317 6.20621C7.49749 7.08225 7.50317 7.96397 7.50317 8.84001C7.50317 8.91396 7.51455 8.98222 7.52024 9.06186C7.79329 9.06186 8.04359 9.06186 8.29388 9.06186C8.66364 7.67386 9.52261 6.82057 10.9789 6.82626C12.4408 6.83195 13.2998 7.68523 13.6639 9.07893ZM13.9938 0.853283C13.9938 1.91135 13.9938 2.93529 13.9938 3.94785C16.1953 3.94785 18.374 3.94785 20.5868 3.94785C20.1488 2.9296 19.7336 1.94548 19.3012 0.967054C19.2728 0.90448 19.1363 0.858971 19.0509 0.858971C18.2659 0.853283 17.4866 0.853283 16.7016 0.853283C15.8028 0.853283 14.9097 0.853283 13.9938 0.853283ZM23.5904 9.50557C23.5904 8.4987 22.7485 7.65679 21.753 7.66248C20.7575 7.67386 19.9327 8.49301 19.9327 9.4885C19.927 10.5011 20.7461 11.3373 21.753 11.343C22.7542 11.3487 23.5904 10.5124 23.5904 9.50557ZM12.8163 9.50557C12.8163 8.4987 11.9744 7.65679 10.9789 7.66817C9.97769 7.67954 9.16423 8.4987 9.15854 9.49419C9.15285 10.5124 9.97201 11.343 10.9789 11.343C11.9858 11.3487 12.8163 10.5124 12.8163 9.50557ZM13.0893 3.96492C13.0893 2.91823 13.0893 1.90566 13.0893 0.858971C12.5489 0.858971 12.0199 0.853283 11.4965 0.870348C11.434 0.870348 11.3429 0.98412 11.3202 1.06376C11.178 1.53022 11.0471 2.00237 10.9106 2.47452C10.7684 2.96942 10.6262 3.45864 10.484 3.97061C11.3657 3.96492 12.2133 3.96492 13.0893 3.96492Z" fill="white" fill-opacity="0.6"/>
<path d="M3.19128 20.6892C3.19128 21.0704 3.19128 21.4117 3.19128 21.7644C2.11614 21.7644 1.06376 21.7644 0 21.7644C0 21.4913 0 21.2296 0 20.9395C0.756577 20.9395 1.51884 20.9395 2.30386 20.9395C2.30386 18.7551 2.30386 16.5992 2.30386 14.4148C1.5416 14.4148 0.779332 14.4148 0.00568855 14.4148C0.00568855 14.119 0.00568855 13.8516 0.00568855 13.5729C1.06945 13.5729 2.12183 13.5729 3.20265 13.5729C3.20265 13.9312 3.20265 14.2782 3.20265 14.6594C3.94785 14.5911 4.65324 14.7618 5.3643 14.4261C6.54183 13.8687 7.79901 13.516 9.10737 13.4136C10.5523 13.2998 11.9061 13.5387 13.0609 14.5058C13.5444 14.9097 13.8573 15.433 14.1417 15.9791C14.2384 16.1668 14.3408 16.2294 14.5513 16.2294C15.6549 16.218 16.7642 16.2408 17.8677 16.218C18.8405 16.201 19.5174 16.5992 19.8758 17.5548C19.9725 17.5093 20.0578 17.4638 20.1432 17.4183C21.5824 16.6333 23.0273 15.8483 24.4665 15.0633C25.3425 14.5854 26.247 14.483 27.1913 14.813C27.9535 15.0803 28.4996 15.615 28.9434 16.309C28.858 16.3659 28.7784 16.4228 28.6931 16.474C24.7224 18.9542 20.7518 21.4287 16.7869 23.909C16.6276 24.0057 16.4968 24.0284 16.3148 23.9715C12.9528 22.9021 9.58521 21.8326 6.21759 20.7689C6.05831 20.7177 5.88765 20.6949 5.71699 20.6949C4.89215 20.6892 4.06163 20.6892 3.19128 20.6892ZM12.3555 18.9428C12.9301 18.9428 13.4876 18.9428 14.0393 18.9428C15.3818 18.9428 16.7187 18.9428 18.0612 18.9428C18.6243 18.9428 19.0168 18.5788 19.0453 18.0611C19.0737 17.4866 18.6585 17.0827 18.0156 17.0827C16.6675 17.077 15.3136 17.077 13.9654 17.0827C13.789 17.0827 13.7094 17.0258 13.6241 16.8722C13.351 16.3773 13.1121 15.8483 12.748 15.4273C11.9118 14.4603 10.7571 14.2213 9.5397 14.2612C8.01517 14.3124 6.59872 14.7902 5.22778 15.4159C5.07988 15.4842 4.90353 15.524 4.74425 15.524C4.23797 15.5354 3.73169 15.5297 3.21972 15.5297C3.21972 16.9803 3.21972 18.3911 3.21972 19.8303C3.33918 19.8303 3.44157 19.8303 3.54397 19.8303C4.28917 19.8303 5.03437 19.8246 5.77957 19.836C5.97298 19.836 6.17777 19.8644 6.3598 19.9213C9.61934 20.9509 12.8789 21.9805 16.1327 23.0159C16.3489 23.0841 16.5139 23.067 16.7073 22.9419C20.2569 20.7177 23.8123 18.5048 27.3619 16.2863C27.453 16.2294 27.5497 16.1668 27.6464 16.0986C26.9125 15.4046 25.8715 15.2794 24.9215 15.7914C23.2719 16.6788 21.6279 17.589 19.9839 18.4878C19.9042 18.5276 19.8189 18.5958 19.7848 18.6698C19.415 19.4833 18.7779 19.8132 17.9076 19.8018C16.1612 19.7848 14.4148 19.7961 12.6684 19.7961C12.566 19.7961 12.4636 19.7961 12.3498 19.7961C12.3555 19.506 12.3555 19.25 12.3555 18.9428Z" fill="white" fill-opacity="0.6"/>
<path d="M1.15479 4.26636C1.43921 4.26636 1.70657 4.26636 1.98531 4.26636C1.98531 4.53941 1.98531 4.80677 1.98531 5.0912C1.71226 5.0912 1.4449 5.0912 1.15479 5.0912C1.15479 4.82384 1.15479 4.55647 1.15479 4.26636Z" fill="white" fill-opacity="0.6"/>
<path d="M3.69186 5.09693C3.40174 5.09693 3.14007 5.09693 2.86133 5.09693C2.86133 4.82388 2.86133 4.55652 2.86133 4.27209C3.13438 4.27209 3.40174 4.27209 3.69186 4.27209C3.69186 4.53946 3.69186 4.80682 3.69186 5.09693Z" fill="white" fill-opacity="0.6"/>
<path d="M5.3983 4.27783C5.3983 4.53951 5.3983 4.80118 5.3983 5.08561C5.11956 5.08561 4.84651 5.08561 4.5564 5.08561C4.5564 4.82393 4.5564 4.56226 4.5564 4.27783C4.82945 4.27783 5.1025 4.27783 5.3983 4.27783Z" fill="white" fill-opacity="0.6"/>
<path d="M3.71459 2.00806C3.71459 2.2868 3.71459 2.54847 3.71459 2.82152C3.44154 2.82152 3.18555 2.82152 2.90112 2.82152C2.90112 2.55985 2.90112 2.29248 2.90112 2.00806C3.15711 2.00806 3.42447 2.00806 3.71459 2.00806Z" fill="white" fill-opacity="0.6"/>
<path d="M5.40965 2.82721C5.1366 2.82721 4.87493 2.82721 4.59619 2.82721C4.59619 2.55985 4.59619 2.29248 4.59619 2.00806C4.86355 2.00806 5.13091 2.00806 5.40965 2.00806C5.40965 2.27542 5.40965 2.5314 5.40965 2.82721Z" fill="white" fill-opacity="0.6"/>
<path d="M7.1162 2.00806C7.1162 2.2868 7.1162 2.54847 7.1162 2.82152C6.84315 2.82152 6.58716 2.82152 6.30273 2.82152C6.30273 2.55985 6.30273 2.29817 6.30273 2.00806C6.55872 2.00806 6.82608 2.00806 7.1162 2.00806Z" fill="white" fill-opacity="0.6"/>
<path d="M15.7002 6.51337C15.7002 6.23463 15.7002 5.97295 15.7002 5.69421C16.4454 5.69421 17.1849 5.69421 17.9415 5.69421C17.9415 5.96158 17.9415 6.22894 17.9415 6.51337C17.1963 6.51337 16.4625 6.51337 15.7002 6.51337Z" fill="white" fill-opacity="0.6"/>
<path d="M14.8244 5.69421C14.8244 5.96726 14.8244 6.22894 14.8244 6.50768C14.5456 6.50768 14.2783 6.50768 13.9995 6.50768C13.9995 6.24032 13.9995 5.97864 13.9995 5.69421C14.2612 5.69421 14.5285 5.69421 14.8244 5.69421Z" fill="white" fill-opacity="0.6"/>
<path d="M21.3376 9.90941C21.3376 9.62498 21.3376 9.37469 21.3376 9.09595C21.6107 9.09595 21.8837 9.09595 22.1739 9.09595C22.1739 9.35762 22.1739 9.62498 22.1739 9.90941C21.9008 9.90941 21.6335 9.90941 21.3376 9.90941Z" fill="white" fill-opacity="0.6"/>
<path d="M11.3999 9.92079C11.1097 9.92079 10.8481 9.92079 10.5693 9.92079C10.5693 9.64774 10.5693 9.38037 10.5693 9.09595C10.8424 9.09595 11.1097 9.09595 11.3999 9.09595C11.3999 9.36331 11.3999 9.62498 11.3999 9.92079Z" fill="white" fill-opacity="0.6"/>
<path d="M8.15159 16.0929C8.10039 15.8881 8.03213 15.6264 7.96387 15.3363C8.82853 15.1315 9.68181 15.0063 10.6034 15.177C10.5578 15.4444 10.5123 15.706 10.4725 15.9336C9.69319 15.9848 8.9423 16.036 8.15159 16.0929Z" fill="white" fill-opacity="0.6"/>
<path d="M6.6042 16.656C6.49612 16.383 6.39373 16.1384 6.28564 15.8653C6.57007 15.7629 6.82606 15.6662 7.11617 15.5638C7.20719 15.8426 7.28683 16.0986 7.37785 16.3773C7.11048 16.474 6.87157 16.565 6.6042 16.656Z" fill="white" fill-opacity="0.6"/>
</g>
<defs>
<clipPath id="clip0_1706_1521">
<rect width="28.9377" height="24" fill="white"/>
</clipPath>
</defs>
</svg>
