<svg width="21" height="24" viewBox="0 0 21 24" fill="none" xmlns="http://www.w3.org/2000/svg">
<g clip-path="url(#clip0_1706_1494)">
<path d="M9.27537 24C8.88706 23.9374 8.48622 23.8998 8.10418 23.8121C4.06451 22.8914 1.44029 20.4363 0.34426 16.4468C-0.325886 14.023 0.00605554 11.6555 1.13967 9.40084C1.18977 9.29437 1.21482 9.16284 1.21482 9.04384C1.22109 6.88935 1.21482 4.7286 1.22109 2.57411C1.22109 2.46764 1.22735 2.35491 1.25867 2.2547C1.3213 2.06681 1.47161 1.98539 1.6595 2.00418C1.85365 2.02297 1.97892 2.12944 2.01023 2.32359C2.02902 2.4238 2.02902 2.52401 2.02902 2.62422C2.02902 4.29019 2.02902 5.9499 2.02902 7.61587C2.02902 7.70981 2.02902 7.80376 2.02902 7.96034C4.12088 5.38622 6.75762 4.00209 10.0269 4.00209C13.2962 4.00209 15.9392 5.37996 18.0248 7.96034C18.0248 7.82881 18.0248 7.74113 18.0248 7.65971C18.0248 5.98121 18.0248 4.30272 18.0248 2.61796C18.0248 2.53027 18.0248 2.44259 18.0311 2.36117C18.0562 2.14196 18.2065 1.99791 18.4132 1.99165C18.6261 1.98539 18.7952 2.12944 18.8265 2.35491C18.839 2.43006 18.8328 2.51148 18.8328 2.58664C18.8328 4.7286 18.8328 6.87057 18.839 9.00627C18.839 9.15658 18.8766 9.31942 18.9455 9.45094C21.9393 15.3006 18.4758 22.4969 12.0436 23.7871C11.624 23.8685 11.1981 23.9186 10.7785 23.9875C10.2775 24 9.77641 24 9.27537 24ZM10.0081 23.1983C15.0248 23.2234 19.1835 19.1086 19.2211 14.0919C19.2524 8.95616 15.1564 4.81629 10.0332 4.81002C4.99144 4.7975 0.864093 8.88727 0.832778 13.9165C0.807726 19.0334 4.89123 23.167 10.0081 23.1983Z" fill="white" fill-opacity="0.6"/>
<path d="M7.63449 1.78501C7.63449 2.22969 7.63449 2.67437 7.63449 3.11904C7.63449 3.40714 7.47165 3.59504 7.23992 3.6013C7.00192 3.60756 6.83282 3.42593 6.83282 3.13157C6.82656 2.24222 6.82656 1.35286 6.83282 0.463512C6.83282 0.162885 6.98314 -0.00621711 7.23366 4.59404e-05C7.47792 4.59404e-05 7.63449 0.181674 7.63449 0.476038C7.63449 0.914451 7.63449 1.3466 7.63449 1.78501Z" fill="white" fill-opacity="0.6"/>
<path d="M13.2274 1.80376C13.2274 2.24217 13.2274 2.68058 13.2274 3.11273C13.2274 3.41962 13.0645 3.60752 12.814 3.60125C12.576 3.59499 12.4194 3.4071 12.4194 3.11273C12.4194 2.22965 12.4194 1.34656 12.4194 0.469729C12.4194 0.175365 12.576 0 12.8265 0C13.0771 0 13.2211 0.162839 13.2274 0.469729C13.2336 0.914405 13.2274 1.35908 13.2274 1.80376Z" fill="white" fill-opacity="0.6"/>
<path d="M9.61997 1.58459C9.61997 1.21507 9.61371 0.851809 9.61997 0.482289C9.62623 0.1754 9.78281 -0.00622825 10.0396 3.47971e-05C10.2839 0.00629785 10.4342 0.181663 10.4404 0.476026C10.4467 1.22759 10.4467 1.9729 10.4404 2.72446C10.4404 3.01882 10.2839 3.19419 10.0333 3.19419C9.78281 3.19419 9.62623 3.02509 9.61997 2.73072C9.61371 2.34868 9.61997 1.96663 9.61997 1.58459Z" fill="white" fill-opacity="0.6"/>
<path d="M4.82232 3.595C4.82232 3.85805 4.82858 4.12736 4.82232 4.39041C4.81606 4.63467 4.65322 4.79124 4.43401 4.79751C4.20228 4.80377 4.03318 4.63467 4.02691 4.37788C4.02065 3.85805 4.02065 3.33195 4.02691 2.81212C4.02691 2.5616 4.20228 2.38623 4.42775 2.3925C4.65322 2.3925 4.81606 2.56786 4.82232 2.82465C4.82858 3.08143 4.82232 3.33822 4.82232 3.595Z" fill="white" fill-opacity="0.6"/>
<path d="M16.027 3.60127C16.027 3.85806 16.0333 4.11484 16.027 4.37163C16.0207 4.62841 15.8579 4.79751 15.6324 4.79751C15.4007 4.79751 15.2379 4.62841 15.2379 4.37163C15.2316 3.85179 15.2316 3.3257 15.2379 2.80586C15.2379 2.55534 15.4195 2.38624 15.6449 2.3925C15.8642 2.39877 16.027 2.56787 16.0333 2.80586C16.0333 3.07517 16.027 3.33822 16.027 3.60127Z" fill="white" fill-opacity="0.6"/>
<path d="M4.02695 0.795407C4.02695 0.65762 4.02069 0.51357 4.02695 0.375783C4.03948 0.150313 4.20858 0 4.42779 0C4.64699 0 4.8161 0.150313 4.82236 0.375783C4.83489 0.65762 4.83489 0.939457 4.82236 1.22129C4.8161 1.44676 4.64699 1.59708 4.42779 1.59708C4.20858 1.59708 4.04574 1.44676 4.03322 1.22129C4.02069 1.07724 4.02695 0.939457 4.02695 0.795407Z" fill="white" fill-opacity="0.6"/>
<path d="M15.2315 0.80167C15.2315 0.651357 15.2253 0.507307 15.2315 0.356994C15.2503 0.14405 15.4132 0.00626305 15.6261 0C15.8328 0 16.0144 0.14405 16.0207 0.350731C16.0332 0.645094 16.0332 0.94572 16.0207 1.24008C16.0144 1.44676 15.8391 1.59081 15.6261 1.59081C15.4132 1.59081 15.2503 1.45303 15.2315 1.24008C15.2253 1.09603 15.2315 0.94572 15.2315 0.80167Z" fill="white" fill-opacity="0.6"/>
<path d="M5.84961 18.2004C5.92477 17.7244 6.02498 17.1357 6.11892 16.5532C6.16903 16.2463 6.2254 15.9394 6.2755 15.6325C6.31308 15.4196 6.23166 15.2568 6.08135 15.1064C5.52394 14.549 4.96652 13.9916 4.42164 13.4217C3.82039 12.7891 3.91433 11.8058 4.63458 11.4112C4.89137 11.2735 5.21078 11.2234 5.50515 11.1732C6.12519 11.0668 6.75149 10.9728 7.3778 10.8914C7.63458 10.8601 7.7849 10.7411 7.8851 10.5094C8.21705 9.79538 8.56151 9.08765 8.89345 8.37366C9.11892 7.89141 9.47592 7.60331 10.0145 7.59705C10.5657 7.59705 10.9289 7.88515 11.1607 8.37993C11.4926 9.09391 11.8433 9.80164 12.169 10.5156C12.2755 10.7474 12.4321 10.8538 12.6826 10.8851C13.453 10.9916 14.2296 11.0981 14.9937 11.2421C15.9895 11.43 16.3778 12.595 15.6889 13.3465C15.1565 13.9353 14.5803 14.4927 14.0166 15.0501C13.8162 15.2505 13.7473 15.4572 13.8037 15.7453C13.9477 16.5094 14.073 17.2797 14.1857 18.0501C14.3235 18.9269 13.7348 19.6346 12.8955 19.5783C12.6951 19.5657 12.4884 19.478 12.3068 19.3841C11.6367 19.0334 10.9728 18.6639 10.3152 18.2943C10.1085 18.1753 9.93312 18.1816 9.72644 18.3006C9.0375 18.6889 8.34857 19.0709 7.65337 19.4342C6.78907 19.8914 5.82456 19.2839 5.84961 18.2004ZM10.0208 17.3486C10.24 17.4238 10.4592 17.4739 10.6471 17.5678C11.3423 17.9373 12.0312 18.3194 12.7202 18.6952C12.8893 18.7891 13.0521 18.8392 13.2212 18.7077C13.3841 18.5762 13.4279 18.4071 13.3966 18.2066C13.2713 17.4426 13.1586 16.6785 13.0145 15.9206C12.9018 15.3382 13.0396 14.8684 13.4717 14.4551C14.0041 13.9415 14.5177 13.4029 15.0375 12.8705C15.263 12.6388 15.3068 12.3632 15.1127 12.1879C14.9999 12.0814 14.8183 12.025 14.6555 12C13.954 11.881 13.2525 11.7682 12.5511 11.6806C12.0062 11.6117 11.6555 11.3298 11.4363 10.8413C11.1168 10.1461 10.7786 9.46343 10.4592 8.76824C10.3715 8.57408 10.2651 8.39872 10.0271 8.40498C9.79533 8.41124 9.69512 8.57408 9.61371 8.76197C9.2755 9.48849 8.92477 10.215 8.5803 10.9415C8.37988 11.3611 8.05421 11.6054 7.59074 11.6743C6.8517 11.7808 6.11266 11.8935 5.36736 12.0062C5.14815 12.0375 4.93521 12.0877 4.86005 12.3444C4.7849 12.595 4.90389 12.7641 5.06673 12.9269C5.59909 13.4655 6.12519 14.0104 6.66381 14.5428C7.02707 14.906 7.14606 15.3319 7.06465 15.8267C6.93312 16.6158 6.8016 17.4112 6.66381 18.2004C6.62623 18.4071 6.67634 18.5887 6.8517 18.7202C7.02707 18.8455 7.18991 18.7829 7.35275 18.6952C8.02915 18.3256 8.70556 17.9499 9.38823 17.5866C9.57613 17.4801 9.8016 17.43 10.0208 17.3486Z" fill="white" fill-opacity="0.6"/>
<path d="M18.4258 13.9353C18.4321 15.3194 18.1314 16.547 17.5678 17.7182C17.4863 17.881 17.3799 18.0063 17.1857 18.0188C16.8538 18.0376 16.6972 17.7307 16.8225 17.3862C17.0479 16.7725 17.3172 16.1649 17.455 15.5324C18.3632 11.4739 15.6012 7.32152 11.5176 6.55117C9.35063 6.14407 7.36525 6.57622 5.56775 7.84762C5.39865 7.96662 5.23581 8.0543 5.02913 7.9353C4.75982 7.77872 4.75982 7.44052 5.02913 7.23384C5.68675 6.73906 6.407 6.35075 7.18362 6.07518C11.4237 4.60336 15.9143 6.5449 17.7306 10.6347C18.2066 11.7244 18.4321 12.8455 18.4258 13.9353Z" fill="white" fill-opacity="0.6"/>
<path d="M9.90806 21.5949C11.6555 21.5761 13.1273 21.1127 14.4425 20.1732C14.4738 20.1482 14.5051 20.1294 14.5365 20.1043C14.7745 19.9415 15.0187 19.9665 15.1565 20.167C15.2943 20.3736 15.2379 20.5928 14.9937 20.7682C13.8475 21.5949 12.5824 22.1273 11.1732 22.3089C8.74314 22.6283 6.56986 22.0146 4.67842 20.4676C2.93103 19.0333 1.92894 17.1607 1.67216 14.9123C1.49053 13.2964 1.75984 11.7557 2.46756 10.2964C2.55525 10.1148 2.66798 9.97697 2.88719 9.98324C3.20034 9.9895 3.36318 10.3027 3.2066 10.6221C2.89971 11.2546 2.66172 11.9123 2.54898 12.6137C2.11057 15.2379 2.81829 17.5177 4.69095 19.4029C6.16276 20.8747 7.97278 21.5636 9.90806 21.5949Z" fill="white" fill-opacity="0.6"/>
</g>
<defs>
<clipPath id="clip0_1706_1494">
<rect width="20.0355" height="24" fill="white"/>
</clipPath>
</defs>
</svg>
