<svg width="143" height="25" viewBox="0 0 143 25" fill="none" xmlns="http://www.w3.org/2000/svg">
<path fill-rule="evenodd" clip-rule="evenodd" d="M13.6775 11.8313C13.6775 10.4702 12.9402 9.27921 11.8627 8.63647C12.5243 7.95592 12.9213 7.02961 12.9213 6.00879C12.9213 3.96714 11.2577 2.28467 9.19717 2.28467H9.06484H0.00974528V3.07864C0.00974528 3.11857 0.0123644 3.15774 0.0174304 3.19602H-0.000244141V15.5362H0.00974528V15.5365C10.2936 15.5365 9.95334 15.5554 9.95334 15.5554C12.0139 15.5554 13.6775 13.8918 13.6775 11.8313ZM1.85079 8.08824V3.94823H9.19717C10.3314 3.94823 11.2577 4.87454 11.2577 6.00879C11.2577 7.16194 10.3314 8.08824 9.19717 8.08824H1.85079ZM6.85306 9.75181H1.85079V13.8918H9.95334C11.0876 13.8918 12.0139 12.9655 12.0139 11.8313C12.0139 10.697 11.0876 9.77071 9.95334 9.77071V9.75181H6.85306ZM35.0375 15.5365L28.2888 2.28467H27.2679C26.7197 2.28467 26.2282 2.60604 25.9635 3.07864L19.6306 15.5365H21.5211L27.3246 4.15618L32.2964 13.8918H26.1715L25.3208 15.5365H35.0375ZM43.9964 7.25646C44.469 7.25646 44.8659 7.65345 44.8659 8.12605V15.5365H43.9964C43.5238 15.5365 43.1457 15.1584 43.1457 14.6858V7.25646H43.9964ZM49.1194 2.28467C49.592 2.28467 49.9701 2.68166 49.9701 3.15426V3.94823H38.8922C38.4196 3.94823 38.0226 3.57015 38.0226 3.07864V2.28467H49.1194ZM57.7234 8.92003C57.7234 6.17893 59.9541 3.94823 62.6952 3.94823H67.5725C68.0451 3.94823 68.4421 3.57015 68.4421 3.07864V2.28467H62.6952C59.0278 2.28467 56.0599 5.25262 56.0599 8.92003C56.0599 12.5874 59.0278 15.5554 62.6952 15.5554C62.6952 15.5554 62.6196 15.5365 68.4421 15.5365V14.7614C68.4421 14.2699 68.0451 13.8918 67.5725 13.8918H62.6952C59.9541 13.8918 57.7234 11.6611 57.7234 8.92003ZM81.1082 2.28467L87.857 15.5365H78.1402L78.9909 13.8918H85.1159L80.1441 4.15618L74.3405 15.5365H72.4501L78.783 3.07864C79.0476 2.60604 79.5391 2.28467 80.0874 2.28467H81.1082ZM96.4188 9.48715L93.0917 2.96522C92.8837 2.54933 92.4489 2.28467 91.9952 2.28467H90.8421L95.7571 11.9069L96.4188 10.6025C96.5889 10.2622 96.5889 9.82743 96.4188 9.48715ZM106.249 2.28467H105.115C104.642 2.28467 104.226 2.54933 103.999 2.96522L97.5909 15.5554H99.5002L106.249 2.28467ZM123.166 13.8918C123.638 13.8918 124.035 14.2699 124.035 14.7614V15.5365H111.464V15.5356H111.464V3.81242H111.464V2.28467H123.846V3.07864C123.846 3.57015 123.449 3.94823 122.976 3.94823H113.315V8.08824H122.674V8.88222C122.674 9.35482 122.296 9.75181 121.804 9.75181H113.315V13.8918H123.166Z" fill="white"/>
<path d="M131.808 2.50872H130.303C130.303 2.1673 130.463 1.9966 130.784 1.9966H133.887C133.887 2.33801 133.727 2.50872 133.406 2.50872H132.388V5.88994C132.388 6.04625 132.339 6.16553 132.24 6.2478C132.141 6.33007 131.997 6.3712 131.808 6.3712V2.50872ZM134.874 2.42233C134.874 2.27014 134.926 2.15291 135.029 2.07064C135.131 1.98426 135.273 1.94107 135.454 1.94107L136.948 5.5259L136.83 5.81589L136.874 5.83441L138.453 1.94107C138.634 1.94107 138.776 1.98426 138.879 2.07064C138.986 2.15702 139.039 2.27631 139.039 2.4285V6.3712C138.657 6.3712 138.465 6.21284 138.465 5.89611V3.29849L138.626 2.87275L138.576 2.86041L137.201 6.20461C137.18 6.25397 137.147 6.29305 137.102 6.32184C137.057 6.35475 137.009 6.3712 136.96 6.3712C136.906 6.3712 136.857 6.35681 136.812 6.32801C136.767 6.29922 136.734 6.25809 136.713 6.20461L135.337 2.85424L135.288 2.87275L135.448 3.29232V5.89611C135.448 6.05242 135.399 6.1717 135.3 6.25397C135.206 6.33213 135.064 6.3712 134.874 6.3712V2.42233Z" fill="white"/>
<path d="M66.0584 24.7693L67.6996 20.6538H68.1439L69.7789 24.7693H69.3038L67.8785 21.0672L67.9711 21.0549L66.5396 24.7693H66.0584ZM66.7803 23.4859L66.9715 23.0602H68.9892L69.02 23.4859H66.7803ZM74.2558 24.831C73.7458 24.831 73.3488 24.6808 73.065 24.3806C72.7853 24.0803 72.6454 23.6504 72.6454 23.091V20.6538H73.0897V23.1157C73.0897 23.5558 73.1884 23.8828 73.3859 24.0967C73.5833 24.3065 73.8733 24.4114 74.2558 24.4114C74.6384 24.4114 74.9304 24.3065 75.132 24.0967C75.3336 23.8828 75.4343 23.5558 75.4343 23.1157V20.6538H75.8662V23.091C75.8662 23.4653 75.8025 23.7821 75.675 24.0412C75.5474 24.3004 75.3644 24.4978 75.1258 24.6335C74.8872 24.7652 74.5973 24.831 74.2558 24.831ZM80.1938 24.7693V21.0734H78.7377V20.6538H82.0881V21.0734H80.6381V24.7693H80.1938ZM86.5574 24.831C86.1502 24.831 85.8088 24.7528 85.5332 24.5965C85.2617 24.4361 85.0561 24.1996 84.9162 23.887C84.7805 23.5743 84.7126 23.1836 84.7126 22.7146C84.7126 22.0154 84.8668 21.4888 85.1753 21.1351C85.488 20.7772 85.9487 20.5983 86.5574 20.5983C86.9688 20.5983 87.3102 20.6785 87.5817 20.8389C87.8573 20.9952 88.063 21.2297 88.1987 21.5423C88.3386 21.8549 88.4085 22.2457 88.4085 22.7146C88.4085 23.4139 88.2522 23.9425 87.9396 24.3004C87.631 24.6541 87.1703 24.831 86.5574 24.831ZM86.5574 24.4114C86.8824 24.4114 87.1477 24.3518 87.3534 24.2325C87.5591 24.1132 87.7092 23.9281 87.8038 23.6772C87.9025 23.4263 87.9519 23.1054 87.9519 22.7146C87.9519 22.3239 87.9025 22.0051 87.8038 21.7583C87.7092 21.5074 87.5591 21.3223 87.3534 21.203C87.1477 21.0796 86.8824 21.0179 86.5574 21.0179C86.2366 21.0179 85.9733 21.0796 85.7677 21.203C85.562 21.3223 85.4098 21.5074 85.3111 21.7583C85.2165 22.0051 85.1692 22.3239 85.1692 22.7146C85.1692 23.1054 85.2165 23.4263 85.3111 23.6772C85.4098 23.9281 85.562 24.1132 85.7677 24.2325C85.9733 24.3518 86.2366 24.4114 86.5574 24.4114ZM91.5228 24.7693V20.6538H92.0041L93.5281 22.9923L93.2258 23.0602L94.8362 20.6538H95.3175V24.7693H94.8732V21.0981H95.0707L93.3739 23.4797L91.8067 21.1474L91.9671 20.9191V24.7693H91.5228ZM100.279 24.831C99.872 24.831 99.5306 24.7528 99.255 24.5965C98.9835 24.4361 98.7778 24.1996 98.6379 23.887C98.5022 23.5743 98.4343 23.1836 98.4343 22.7146C98.4343 22.0154 98.5886 21.4888 98.8971 21.1351C99.2097 20.7772 99.6704 20.5983 100.279 20.5983C100.691 20.5983 101.032 20.6785 101.303 20.8389C101.579 20.9952 101.785 21.2297 101.92 21.5423C102.06 21.8549 102.13 22.2457 102.13 22.7146C102.13 23.4139 101.974 23.9425 101.661 24.3004C101.353 24.6541 100.892 24.831 100.279 24.831ZM100.279 24.4114C100.604 24.4114 100.869 24.3518 101.075 24.2325C101.281 24.1132 101.431 23.9281 101.526 23.6772C101.624 23.4263 101.674 23.1054 101.674 22.7146C101.674 22.3239 101.624 22.0051 101.526 21.7583C101.431 21.5074 101.281 21.3223 101.075 21.203C100.869 21.0796 100.604 21.0179 100.279 21.0179C99.9583 21.0179 99.6951 21.0796 99.4894 21.203C99.2838 21.3223 99.1316 21.5074 99.0328 21.7583C98.9382 22.0051 98.8909 22.3239 98.8909 22.7146C98.8909 23.1054 98.9382 23.4263 99.0328 23.6772C99.1316 23.9281 99.2838 24.1132 99.4894 24.2325C99.6951 24.3518 99.9583 24.4114 100.279 24.4114ZM106.209 24.7693V21.0734H104.753V20.6538H108.104V21.0734H106.654V24.7693H106.209ZM110.973 24.7693V20.6538H111.417V24.7693H110.973ZM115.867 24.7693L114.287 20.6538H114.762L116.188 24.3929H116.027L117.428 20.6662L117.884 20.6538L116.305 24.7693H115.867ZM120.754 24.7693V20.6538H123.351V21.0734H121.198V22.4925H123.092V22.9244H121.198V24.3497H123.351V24.7693H120.754Z" fill="white"/>
</svg>
