<svg width="168" height="19" viewBox="0 0 168 19" fill="none" xmlns="http://www.w3.org/2000/svg">
<path fill-rule="evenodd" clip-rule="evenodd" d="M11.717 9.77344C11.717 8.58476 11.1226 7.5659 10.1887 7.05647C10.783 6.46213 11.1226 5.69798 11.1226 4.84892C11.1226 3.0659 9.67924 1.6225 7.89622 1.6225H7.81131H0V2.30175V2.38665V12.915H0.849056C8.83018 12.915 8.57546 12.915 8.57546 12.915C10.2736 12.915 11.717 11.5565 11.717 9.77344ZM1.5283 6.54703V2.98099H7.81131C8.74527 2.98099 9.59433 3.74515 9.59433 4.76402C9.59433 5.78288 8.83018 6.54703 7.81131 6.54703H1.5283ZM5.85848 7.99043H1.61321V11.5565H8.49055C9.42452 11.5565 10.2736 10.7923 10.2736 9.77344C10.2736 8.83948 9.50942 7.99043 8.49055 7.99043H5.85848ZM29.9717 12.915L24.1981 1.5376H23.349C22.8396 1.5376 22.5 1.79232 22.2453 2.21685L16.8113 12.915H18.4245L23.4339 3.15081L27.6792 11.4716H22.4151L21.6509 12.915H29.9717ZM37.6132 5.86778C38.0377 5.86778 38.3773 6.20741 38.3773 6.63194V12.9999H37.6132C37.1886 12.9999 36.849 12.6602 36.849 12.2357V5.86778H37.6132ZM42.0282 1.6225C42.4528 1.6225 42.7924 1.96213 42.7924 2.38665V3.0659H33.283C32.8584 3.0659 32.5188 2.72628 32.5188 2.30175V1.6225H42.0282ZM49.415 7.31119C49.415 4.93383 51.283 3.0659 53.6603 3.0659H57.8207C58.2452 3.0659 58.5848 2.72628 58.5848 2.30175V1.6225H53.6603C50.5188 1.6225 47.9716 4.16968 47.9716 7.31119C47.9716 10.4527 50.5188 12.9999 53.6603 12.9999C53.6603 12.9999 53.5754 12.9999 58.5848 12.9999V12.3206C58.5848 11.8961 58.2452 11.5565 57.8207 11.5565H53.6603C51.283 11.5565 49.415 9.60364 49.415 7.31119ZM69.4527 1.6225L75.2263 12.9999H66.9056L67.6697 11.5565H72.9339L68.6886 3.23571L63.6792 12.9999H61.9811L67.415 2.30175C67.6697 1.87722 68.0942 1.6225 68.5188 1.6225H69.4527ZM82.5282 7.73571L79.6414 2.13193C79.4716 1.79231 79.132 1.5376 78.7074 1.5376H77.6886L81.9339 9.77344L82.5282 8.66967C82.698 8.41496 82.698 8.07534 82.5282 7.73571ZM90.9339 1.6225H89.9999C89.5754 1.6225 89.2357 1.87722 89.0659 2.21685L83.5471 12.9999H85.1603L90.9339 1.6225ZM105.453 11.5565C105.877 11.5565 106.217 11.8961 106.217 12.3206V12.9999H97.0471H95.4338V2.89609V1.6225H106.047V2.30175C106.047 2.72628 105.707 3.0659 105.283 3.0659H97.0471V6.63194H105.028V7.31119C105.028 7.73571 104.689 8.07533 104.264 8.07533H96.9621V11.6414H105.453V11.5565Z" fill="white"/>
<path d="M129.04 2.536C129.904 2.03467 130.843 1.784 131.856 1.784C132.88 1.784 133.819 2.03467 134.672 2.536C135.536 3.03733 136.219 3.72 136.72 4.584C137.221 5.43733 137.472 6.376 137.472 7.4C137.472 8.41333 137.221 9.352 136.72 10.216C136.219 11.0693 135.536 11.7467 134.672 12.248C133.819 12.7493 132.88 13 131.856 13C130.843 13 129.904 12.7493 129.04 12.248C128.187 11.7467 127.509 11.0693 127.008 10.216C126.507 9.352 126.256 8.41333 126.256 7.4C126.256 6.376 126.507 5.43733 127.008 4.584C127.509 3.72 128.187 3.03733 129.04 2.536ZM128.88 10.36C129.701 11.1813 130.693 11.592 131.856 11.592C133.019 11.592 134.011 11.1813 134.832 10.36C135.653 9.53867 136.064 8.552 136.064 7.4C136.064 6.23733 135.653 5.24533 134.832 4.424C134.011 3.592 133.019 3.176 131.856 3.176C130.693 3.176 129.701 3.592 128.88 4.424C128.059 5.24533 127.648 6.23733 127.648 7.4C127.648 8.552 128.059 9.53867 128.88 10.36ZM153.078 8.088H153.814V13H152.342H147.606C146.593 13 145.654 12.7493 144.79 12.248C143.937 11.7467 143.259 11.0693 142.758 10.216C142.257 9.352 142.006 8.41333 142.006 7.4C142.006 6.376 142.257 5.43733 142.758 4.584C143.259 3.72 143.937 3.03733 144.79 2.536C145.654 2.03467 146.593 1.784 147.606 1.784C147.606 1.784 147.659 1.784 147.766 1.784C147.883 1.784 148.395 1.784 149.302 1.784C150.219 1.784 151.494 1.784 153.126 1.784V2.456C153.126 2.65867 153.051 2.82933 152.902 2.968C152.763 3.10667 152.593 3.176 152.39 3.176H147.606C146.443 3.176 145.451 3.592 144.63 4.424C143.809 5.24533 143.398 6.23733 143.398 7.4C143.398 8.552 143.809 9.53867 144.63 10.36C145.451 11.1813 146.443 11.592 147.606 11.592H152.342V8.824C152.342 8.62133 152.411 8.45067 152.55 8.312C152.699 8.16267 152.875 8.088 153.078 8.088ZM163.093 8.272C163.749 8.272 164.305 8.504 164.761 8.968C165.225 9.432 165.457 9.992 165.457 10.648C165.457 11.296 165.225 11.852 164.761 12.316C164.305 12.78 163.749 13.012 163.093 13.012L157.645 13H157.609V12.496C157.609 12.344 157.661 12.216 157.765 12.112C157.877 12 158.009 11.944 158.161 11.944H163.009H163.177C163.521 11.928 163.809 11.796 164.041 11.548C164.281 11.292 164.401 10.988 164.401 10.636C164.401 10.276 164.273 9.968 164.017 9.712C163.761 9.456 163.453 9.328 163.093 9.328H163.069C162.917 9.328 162.789 9.276 162.685 9.172C162.581 9.06 162.529 8.928 162.529 8.776V8.272H163.093ZM159.865 9.316C159.433 9.316 159.033 9.212 158.665 9.004C158.305 8.788 158.021 8.5 157.813 8.14C157.605 7.78 157.501 7.384 157.501 6.952C157.501 6.296 157.729 5.74 158.185 5.284C158.649 4.82 159.209 4.588 159.865 4.588C159.889 4.588 159.917 4.588 159.949 4.588H165.121V5.092C165.121 5.164 165.105 5.236 165.073 5.308C165.049 5.372 165.013 5.428 164.965 5.476C164.917 5.524 164.857 5.564 164.785 5.596C164.721 5.62 164.653 5.632 164.581 5.632H159.865V5.644C159.505 5.644 159.197 5.772 158.941 6.028C158.685 6.284 158.557 6.592 158.557 6.952C158.557 7.312 158.685 7.62 158.941 7.876C159.197 8.132 159.505 8.26 159.865 8.26V8.272H159.877C159.981 8.272 160.073 8.296 160.153 8.344C160.241 8.392 160.309 8.46 160.357 8.548C160.405 8.628 160.429 8.716 160.429 8.812V9.316H159.865Z" fill="white"/>
<path d="M114.64 9.336V8.088H118.512V9.336H114.64Z" fill="white"/>
</svg>
