<svg width="98" height="40" viewBox="0 0 98 40" fill="none" xmlns="http://www.w3.org/2000/svg">
<g clip-path="url(#clip0_1706_1590)">
<path d="M97.8821 0.000244141C97.8821 0.000244141 86.5879 6.51005 85.9604 23.0591C85.9604 23.0591 76.7839 20.7061 71.6858 29.6473C71.6858 29.6473 60.7054 26.9022 55.372 34.9022C55.372 34.9022 50.9014 35.1375 49.1759 39.3728C49.0974 39.6081 49.019 39.8434 48.9406 40.0002C48.8621 39.7649 48.7837 39.5297 48.7053 39.3728C46.9798 35.1375 42.5091 34.9022 42.5091 34.9022C37.2542 26.9022 26.1953 29.6473 26.1953 29.6473C21.0972 20.7061 11.9207 23.0591 11.9207 23.0591C11.2932 6.51005 -0.000976562 0.000244141 -0.000976562 0.000244141L34.8228 9.6473C35.764 13.3336 42.0386 17.7257 42.0386 17.7257L43.8425 22.0395C43.8425 22.0395 45.019 20.863 44.2346 19.5297C43.4503 18.1963 43.1366 14.1963 43.1366 14.1963L45.1758 16.7061H52.5484L54.5877 14.1963C54.5877 14.1963 54.2739 18.1963 53.4896 19.5297C52.7053 20.863 53.8818 22.0395 53.8818 22.0395L55.6857 17.7257C55.6857 17.7257 61.9603 13.3336 62.9015 9.6473L97.8821 0.000244141Z" fill="url(#paint0_linear_1706_1590)"/>
<path d="M78.9799 18.7452L64.47 11.3726L64.6268 10.9805L78.9799 18.7452Z" fill="#0E0E0E"/>
<path d="M68.3135 22.4319L64.3135 11.2162L64.7056 11.0593L68.3135 22.4319Z" fill="#0E0E0E"/>
<path d="M57.2544 18.8239C58.9015 18.0396 60.4701 17.02 61.8035 15.8435C62.4309 15.216 63.0584 14.5102 63.529 13.7258C63.9995 12.9415 64.2348 12.0788 64.3133 11.216V11.0592H64.3917C68.2349 10.0396 72.078 9.01996 75.9212 8.00035L81.7252 6.51015C83.686 6.03957 85.5683 5.56898 87.5291 5.09839C85.6468 5.64741 83.686 6.19643 81.8036 6.74545L75.9996 8.31407C72.1565 9.33368 68.3133 10.3533 64.4701 11.3729L64.627 11.216C64.5486 12.1572 64.2348 13.0984 63.6858 13.8827C63.2152 14.667 62.5093 15.3729 61.8819 16.0003C61.176 16.6278 60.3917 17.0984 59.6074 17.6474C58.9015 18.0396 58.1171 18.4317 57.2544 18.8239Z" fill="#0E0E0E"/>
<path d="M18.8994 18.7457L33.2525 10.981L33.4878 11.3731L18.8994 18.7457Z" fill="#0E0E0E"/>
<path d="M29.6445 22.4324L33.174 11.0598L33.5661 11.2167L29.6445 22.4324Z" fill="#0E0E0E"/>
<path d="M40.7033 18.8247C39.8406 18.5109 39.0563 18.0404 38.1935 17.5698C37.4092 17.0992 36.6249 16.5502 35.919 15.9227C35.2131 15.2953 34.5856 14.5894 34.115 13.8051C33.566 13.0208 33.3307 12.0796 33.1739 11.1384L33.3307 11.2953C29.4876 10.2757 25.6444 9.25605 21.8012 8.23644L15.9973 6.66781C14.0365 6.11879 12.1541 5.56977 10.2717 5.02075C12.2325 5.49134 14.1149 5.96193 16.0757 6.43252L21.8797 7.92271C25.7228 8.94232 29.566 9.96193 33.4092 10.9815H33.4876V11.1384C33.566 12.0011 33.8013 12.8639 34.2719 13.6482C34.7425 14.4325 35.37 15.1384 35.9974 15.7658C37.4092 17.0208 38.9778 18.0404 40.7033 18.8247Z" fill="#0E0E0E"/>
</g>
<defs>
<linearGradient id="paint0_linear_1706_1590" x1="48.9563" y1="40.0394" x2="48.9563" y2="0.000244141" gradientUnits="userSpaceOnUse">
<stop stop-color="#007AFF"/>
<stop offset="0.4615" stop-color="#004289"/>
<stop offset="1" stop-color="#001934"/>
</linearGradient>
<clipPath id="clip0_1706_1590">
<rect width="97.8831" height="40" fill="white"/>
</clipPath>
</defs>
</svg>
